<?xml version="1.0" encoding="utf-8"?>
<!-- Generator: Adobe Illustrator 27.0.0, SVG Export Plug-In . SVG Version: 6.00 Build 0)  -->
<svg version="1.1" id="Layer_1" xmlns="http://www.w3.org/2000/svg" xmlns:xlink="http://www.w3.org/1999/xlink" x="0px" y="0px"
	 viewBox="0 0 256 256" style="enable-background:new 0 0 256 256;" xml:space="preserve">
<style type="text/css">
	.st0{fill:#FDFDFE;}
	.st1{fill:#1835F3;}
	.st2{fill:#FCFDFE;}
	.st3{fill:#8ADBFE;}
	.st4{fill:#0C21F3;}
	.st5{fill:#0A1DF3;}
	.st6{fill:#1227F6;}
	.st7{fill:#1329F5;}
	.st8{fill:#0F2BF4;}
	.st9{fill:#142DF4;}
	.st10{fill:#1227F5;}
	.st11{fill:#0525F2;}
	.st12{fill:#0B1DF3;}
	.st13{fill:#0C21F4;}
	.st14{fill:#8BDDFD;}
	.st15{fill:#1229F2;}
	.st16{fill:#8DDFFD;}
	.st17{fill:#97EDFE;}
	.st18{fill:#8EE1FD;}
	.st19{fill:#94E9FE;}
	.st20{fill:#93E7FE;}
	.st21{fill:#8DE1FD;}
	.st22{fill:#90E5FD;}
	.st23{fill:#0514F3;}
	.st24{fill:#0D20F4;}
	.st25{fill:#1025F4;}
	.st26{fill:#0F25F4;}
</style>
<g>
	<g>
		<path class="st0" d="M0,0c85.33,0,170.67,0,256,0c0,85.33,0,170.67,0,256c-85.33,0-170.67,0-256,0C0,170.67,0,85.33,0,0z
			 M0.97,127.77c-0.13,69.97,56.52,127,126.43,127.27c70.25,0.26,127.37-56.37,127.64-126.56C255.3,58.3,198.55,1.18,128.36,0.97
			C58.19,0.76,1.1,57.59,0.97,127.77z"/>
		<path class="st1" d="M0.97,127.77C1.1,57.59,58.19,0.76,128.36,0.97C198.55,1.18,255.3,58.3,255.03,128.48
			c-0.27,70.19-57.39,126.82-127.64,126.56C57.49,254.77,0.84,197.74,0.97,127.77z M251.85,128.38
			C252.39,60.94,196.96,4.83,129.13,4.16C61.23,3.49,4.71,58.88,4.15,126.62C3.58,195.2,58.91,251.42,127.37,251.85
			C195.48,252.27,251.29,196.91,251.85,128.38z"/>
		<path class="st2" d="M251.85,128.38c-0.55,68.54-56.37,123.9-124.48,123.47C58.91,251.42,3.58,195.2,4.15,126.62
			C4.71,58.88,61.23,3.49,129.13,4.16C196.96,4.83,252.39,60.94,251.85,128.38z M105.68,64.81l0.11-0.12
			c-0.37,0.4-0.74,0.8-1.11,1.2c-1.62,2.84-3.24,5.69-4.86,8.53c-0.23,0.52-0.46,1.04-0.69,1.56c-0.54,1.24-1.08,2.49-1.64,3.77
			c-1-0.67-1.79-1.2-2.57-1.72c-1.07-0.05-2.14-0.09-3.22-0.14c-0.28,0.26-0.56,0.52-0.84,0.78c-0.34,0.77-0.68,1.53-1.01,2.3
			c-0.16,1.03-0.32,2.07-0.48,3.1c0.01,0.62,0.02,1.25,0.02,1.87c0.16,0.84,0.32,1.67,0.48,2.51c-0.63-0.13-1.26-0.27-1.89-0.4
			c-2.97-4.69-5.95-9.37-8.92-14.06c-0.31-0.44-0.63-0.88-0.94-1.32c-1.93-2.59-3.87-5.18-5.8-7.77c-0.38-0.39-0.77-0.77-1.15-1.16
			l0.11,0.12c-0.38-0.44-0.76-0.89-1.13-1.33c-0.23-0.22-0.47-0.44-0.7-0.66c-0.42-0.39-0.83-0.78-1.25-1.17l0.11,0.09
			c-0.38-0.35-0.75-0.7-1.13-1.05c0,0,0.09,0.1,0.09,0.1c-0.4-0.35-0.79-0.7-1.19-1.04C65.72,58.52,65.36,58.26,65,58
			c-0.63-0.41-1.26-0.83-1.88-1.24l0.09,0.06c-0.74-0.31-1.48-0.61-2.22-0.92l-0.38-0.05c-1.07,0-2.14,0-3.21-0.01
			c0,0-0.37,0.08-0.37,0.08c-0.46,0.24-0.91,0.48-1.37,0.72l0.4,0.23c0,0-0.39-0.24-0.39-0.24c-0.31,0.4-0.62,0.79-0.94,1.19
			l0.08-0.08c-0.25,0.43-0.51,0.85-0.76,1.28c-0.27,1.34-0.54,2.68-0.81,4.02c0.04,0.97,0.09,1.93,0.13,2.9
			c0.58,2.69,1.16,5.39,1.74,8.08c0.27,0.75,0.54,1.5,0.81,2.25c-0.12,0.3-0.05,0.55,0.19,0.75c0.28,0.71,0.57,1.42,0.85,2.13
			c0.28,0.64,0.57,1.29,0.85,1.93c0.35,0.81,0.7,1.62,1.04,2.43c-0.12,0.23-0.06,0.4,0.18,0.51c0.27,0.53,0.54,1.05,0.81,1.58
			c1.41,2.81,2.82,5.62,4.24,8.43c0.27,0.46,0.53,0.92,0.8,1.38c3.05,5.2,6.09,10.4,9.14,15.6c-8.17,1.33-14.6,5.6-19.65,11.98
			c-4.11,5.19-3.48,10.68,1.58,14.92c1.81,1.52,3.88,2.72,5.91,4.12c-12.53,10.49-11.59,16.47,4.24,29.46
			c-5.24,5.62-4.92,9.14,1.44,13.59c2.16,1.51,4.5,2.87,6.92,3.91c5.17,2.23,10.41,4.32,15.71,6.22c1.72,0.62,3.72,0.48,5.59,0.68
			c3.47,0.69,6.94,1.39,10.41,2.08c3.85,3.19,7.99,5.34,13.24,4.02c0.7-0.18,1.67-0.08,2.27,0.28c6.33,3.9,12.07,1.98,17.74-1.73
			c5.63,5.42,11.49,3.49,17.36,0.42c5.35-1.29,10.71-2.58,16.06-3.88c1.15,0.43,2.48,1.48,3.41,1.19c3.72-1.15,7.29-2.78,10.96-4.12
			c4.66-1.7,9.66-2.74,13.98-5.06c6.73-3.6,8.18-10.63,4.06-17.06c-1.56-2.44-3.61-4.56-5.44-6.84c7.12-4.74,8.81-9.96,4.18-15.84
			c-3.13-3.99-2.95-6.62-0.32-10.76c4.22-6.64,1.7-11.67-5.67-13.11c-0.25-0.8-0.51-1.61-0.76-2.41c1.63-3.23,3.27-6.46,4.9-9.7
			c0.31-0.79,0.62-1.59,0.93-2.38l0.13-0.38c0.22-0.53,0.44-1.06,0.66-1.59c0.12-0.47,0.23-0.94,0.35-1.41
			c0.22-0.53,0.43-1.06,0.65-1.59c0.79-2.79,1.58-5.58,2.37-8.37c0.2-0.54,0.41-1.08,0.61-1.62c0.15-0.77,0.3-1.54,0.45-2.3
			c0.25-0.91,0.51-1.82,0.76-2.73c0.41-2.09,0.83-4.18,1.24-6.28c0.23-0.9,0.47-1.81,0.7-2.71c0.22-1.01,0.45-2.02,0.67-3.04
			c0.05-0.32,0.1-0.63,0.15-0.95c0.33-2.46,0.88-4.91,0.93-7.38c0.1-4.5-0.04-9.03-4.74-11.64c-0.66-0.27-1.32-0.54-1.98-0.81
			c-0.68-0.01-1.36-0.03-2.04-0.04c-0.72,0.23-1.44,0.47-2.16,0.7c0,0,0.08-0.05,0.08-0.05c-0.66,0.39-1.33,0.78-1.99,1.17
			c-3.37,5.49-6.74,10.97-10.11,16.46c-0.23,0.52-0.46,1.04-0.68,1.56c-0.12,0.46-0.23,0.91-0.35,1.37
			c-0.22,0.54-0.44,1.09-0.66,1.63c-0.25,0.22-0.31,0.48-0.2,0.79c-0.36,1.09-0.72,2.17-1.08,3.26c0,0-0.06,0.29-0.06,0.29
			c-0.33,0.87-0.65,1.74-0.98,2.61c-0.46,0.56-0.93,1.12-1.33,1.6c-0.48-1.22-0.95-2.39-1.41-3.56c-0.28-0.42-0.56-0.84-0.84-1.26
			c0,0,0.07,0.07,0.07,0.07c-0.35-0.37-0.71-0.74-1.06-1.1l0.07,0.06c-0.43-0.25-0.86-0.49-1.29-0.74
			c-1.32-0.08-2.65-0.15-3.97-0.23c-0.99,0.41-1.99,0.82-2.98,1.23c-1.66,0.33-3.31,0.66-4.97,1c-0.3-3.56-0.59-7.12-0.89-10.68
			c-1.36-2.79-2.72-5.59-4.08-8.38c-1.76-0.01-3.52-0.01-5.27-0.02c-0.54,0.37-1.09,0.75-1.63,1.12c-1.12,1.17-2.17,2.44-3.42,3.45
			c-0.31,0.25-1.29-0.33-1.97-0.53c-0.18-0.57-0.36-1.14-0.54-1.71l0.04-0.21c-0.38-1.23-0.77-2.46-1.15-3.69
			c-0.09-0.46-0.17-0.93-0.26-1.39c-0.29-0.69-0.58-1.39-0.88-2.08c-1.67-2.31-3.34-4.61-5.01-6.92c-2.05-0.01-4.09-0.02-6.14-0.03
			c-3.35,3.51-6.7,7.03-10.04,10.54c-0.33,0.48-0.67,0.97-1,1.45c-0.33,0.55-0.66,1.09-0.99,1.64c-0.27,0.47-0.53,0.95-0.8,1.42
			l-0.02,0.06c-0.68-0.01-1.37-0.02-2.05-0.03c-0.62-1.36-1.24-2.73-1.86-4.09c-0.32-0.41-0.63-0.82-0.95-1.22l0.09,0.09
			c-0.34-0.39-0.67-0.77-1.01-1.16l0.07,0.06c-0.4-0.32-0.81-0.63-1.21-0.95l0.08,0.05c-0.71-0.34-1.43-0.69-2.14-1.03
			c-2.03,0.36-4.07,0.72-6.1,1.09c-0.47,0.33-0.94,0.65-1.4,0.98c-0.23,0.24-0.47,0.47-0.7,0.71
			C106.46,63.98,106.07,64.4,105.68,64.81z"/>
		<path class="st3" d="M172.82,197.07c-5.35,1.29-10.71,2.58-16.06,3.88c0.64-1.89,1.29-3.77,1.93-5.66
			c-1.75,0.61-3.57,1.08-5.24,1.85c-3.44,1.59-7.14,3.68-10.47,0.77c-3.3-2.88-5.88-2.21-8.7,0.13c-3.01,2.49-5.83,3.14-9.48,0.76
			c-1.69-1.11-4.46-0.45-6.69-0.88c-2.42-0.47-4.81-1.18-7.16-1.95c-1.28-0.42-2.45-1.17-3.67-1.77c-0.38,1.25-0.75,2.5-1.13,3.75
			c-3.47-0.69-6.94-1.39-10.41-2.08c-1.5-1.62-2.72-3.84-4.57-4.75c-6.12-2.99-12.6-5.24-18.65-8.35c-2.04-1.05-3.2-3.81-4.77-5.79
			c0.16-0.63,0.33-1.27,0.49-1.9c0.62-0.23,1.24-0.47,1.86-0.7c2.74-1.84,2.87-3.69,0.03-5.55l0.04,0.05
			c-1.09-0.73-2.17-1.46-3.26-2.19c-1.85-1.62-3.84-3.11-5.53-4.89c-5.05-5.32-4.75-9.56,0.81-14.26c1.76-1.48,3.46-3.03,5.19-4.55
			c3.01-1.96,1.59-4-0.38-5.22c-2.13-1.31-4.73-1.85-7.12-2.72c-0.66-0.56-1.33-1.12-1.99-1.68c-0.4-1.84-0.79-3.68-1.19-5.51
			c0.61-1,1.23-1.99,1.84-2.99c1.11-1.11,2.22-2.23,3.33-3.34c0.66-0.53,1.32-1.05,1.98-1.58c1.72-0.94,3.43-1.88,5.15-2.81
			c3.2-0.17,6.76,0.2,6.83-4.61c1.09,0.3,2.18,0.6,3.28,0.9c-0.12-1.33,0.17-2.89-0.42-3.96c-6.6-11.98-13.57-23.76-19.93-35.87
			c-2.22-4.22-2.63-9.17,0.34-14.62c3.27,2.91,6.13,5.46,8.99,8.01c-0.29,1.01-0.57,2.03-0.86,3.04c-0.22,0.8-0.83,2.14-0.59,2.31
			c5.03,3.58,2.39,9.04,3.49,13.55c0.29,1.18,1.26,2.27,2.13,3.2c3.29,3.5,7.12,6.62,7.77,11.85c0.26,0.54,0.52,1.07,0.78,1.61
			c0.38-0.57,0.76-1.14,1.13-1.71c0.28-0.3,0.56-0.6,0.84-0.9c1.45-0.99,2.9-1.99,4.35-2.98c0.33,0.23,0.66,0.46,1,0.69
			c0.91,0.79,1.82,1.58,2.74,2.37c0.72,1.31,1.44,2.63,2.16,3.94c0.27,0.53,0.53,1.07,0.8,1.6c0.37-0.58,0.74-1.16,1.11-1.74
			c0.28-0.29,0.56-0.59,0.84-0.88c4.66-1.81,0.75-4.91,0.77-7.22c0.02-2.37-1.14-4.42,2.34-5c0.44-0.07,0.7-1.27,1.04-1.94
			c0.28-0.28,0.56-0.56,0.84-0.84c4.48-4.43,4.07-10.43,5.15-15.96c0.99-1.5,1.81-3.17,3.01-4.48c3.62-3.98,6.26-3.57,8.6,1.36
			c0.91,1.93,1.17,4.16,2.05,6.11c0.49,1.09,1.56,2.49,2.52,2.62c0.91,0.12,2.35-1.02,2.97-1.98c1.51-2.36,2.69-4.94,4-7.43
			c0.9-1.38,1.8-2.77,2.7-4.15c3.72-6.59,7.81-7.93,11.62-3.82c0.16,0.29,0.32,0.57,0.49,0.86c0.83,2.37,1.65,4.75,2.48,7.12
			c0.16,0.63,0.32,1.27,0.49,1.9c0.14,0.71,0.29,1.42,0.43,2.13c0.19,0.96,0.39,1.91,0.58,2.87c0.1,0.65,0.19,1.3,0.29,1.95
			c0.04,0.33,0.08,0.66,0.12,0.99c0.19,0.69,0.38,1.37,0.58,2.06c0.35,0.47,0.7,0.94,1.06,1.41c0.74-0.04,1.49-0.07,2.23-0.11
			c0.9-2,1.79-4,2.69-6l-0.17-0.19l-0.14,0.21c0.46-0.68,0.92-1.36,1.37-2.05c1.04-1.02,2.08-2.03,3.12-3.05
			c0.17,0.2,0.38,0.3,0.65,0.27c0.82,0.38,1.63,0.76,2.45,1.14c0.06,0.44,0.12,0.89,0.19,1.33c0.24,0.33,0.48,0.66,0.71,0.98
			c-0.04,1.42-0.07,2.84-0.11,4.25c0.08,4.6,0.17,9.2,0.25,13.79c0.4,1.92,0.8,3.84,1.2,5.75c1.17-0.6,2.35-1.2,3.52-1.8
			c0.65-1.08,1.3-2.15,1.94-3.23l-0.06,0.01c1.08-0.94,2.16-1.87,3.25-2.81c1.99-0.32,3.98-0.64,5.97-0.96l0.36-0.1
			c-0.04,0.66-0.09,1.32-0.13,1.98c0,0.73,0,1.47,0,2.2c0.07,0.97,0.15,1.94,0.22,2.91c0.02,0.34-0.05,0.66-0.23,0.95
			c-0.05,0.35-0.09,0.7-0.14,1.05c-2.59,5.74-4.58,11.82-9.72,16.06c-0.7,0.58-0.65,2.07-0.94,3.13c1.22-0.01,3,0.5,3.56-0.12
			c4.69-5.09,9.86-9.94,13.46-15.76c2.69-4.34,2.82-10.19,4.88-15.03c3.08-7.23,6.69-14.25,10.47-21.13
			c0.68-1.24,3.43-2.12,4.97-1.84c1.06,0.2,2.42,2.71,2.4,4.17c-0.1,5.12-0.74,10.23-1.17,15.34c-0.52-0.74-1.08-1.45-1.55-2.22
			c-0.62-1.01-1.16-2.05-1.74-3.08c-0.85,0.61-1.93,1.06-2.52,1.86c-2.23,3.02-4.38,6.1-6.39,9.26c-0.69,1.08-0.86,2.49-1.26,3.75
			c1.46-0.28,3.13-0.2,4.34-0.92c2.23-1.31,4.19-3.09,6.26-4.68c0.31,1.06,1.14,2.29,0.85,3.14c-3.19,9.53-6.55,19.01-9.87,28.5
			c-1.12-0.88-3.24-1.82-3.19-2.63c0.21-3.4,1.07-6.77,1.69-10.14c0.38-2.08,0.94-4.15,1.04-6.25c0.03-0.67-1.05-1.8-1.8-1.98
			c-0.57-0.13-1.91,0.81-2.05,1.46c-1.31,5.93-2.57,11.87-3.54,17.85c-0.69,4.28,0.92,6.61,5.69,5.15
			c-0.01,1.04-0.01,2.09-0.02,3.13c0,1.22-0.06,2.44,0.02,3.65c0.11,1.6,0.34,3.2,0.52,4.8c1.05-1.1,2.11-2.2,3.16-3.3
			c1.42,0.37,4.05,0.75,4.05,1.11c-0.01,2.02-0.03,4.58-1.2,5.96c-4.08,4.76-3.26,9.1-0.23,13.92c3.19,5.09,2.5,7.45-2.77,9.95
			c-3.59,1.7-4.81,3.35-1.44,6.49c1.91,1.79,3.61,3.83,5.19,5.92c3.32,4.39,2.81,8.82-1.92,11.22c-4.46,2.26-9.46,3.43-14.16,5.26
			C179.92,191.67,174.68,191.7,172.82,197.07z M121.89,152.93c1.01-0.72,2.02-1.45,3.04-2.17c2.47-3.46,4.93-6.92,7.43-10.43
			c2.27,2.15,4.81,4.23,6.97,6.65c12.99,14.53,36.72,10.4,43.58-7.64c3.58-9.42,3.58-9.42-6.42-10.32
			c-0.16-0.01-0.32-0.07-0.49-0.11c-2.56-2.51-9.1-2.77-13.21-0.52c-2.93-0.17-5.86-0.35-8.79-0.52c-4.16-3.49-8.6-2.11-13.03-0.76
			c-1.65-0.07-3.31-0.15-4.96-0.22c-3.94-3.36-8.06-2.35-12.21-0.5c-2.26-0.16-4.52-0.31-6.79-0.47c-0.05-1.38-0.09-2.76-0.14-4.14
			l-0.04,0.13c0.39-0.28,0.78-0.55,1.17-0.83c0.54-0.4,1.07-0.79,1.61-1.19c0.79-0.23,1.57-0.46,2.36-0.69
			c5.19,2.96,9.79,2.17,13.75-2.57c0.8,0.74,1.36,1.34,2,1.83c3.65,2.83,7.63,4.26,11.97,1.83c4.39-2.45,5.7-6.77,5.64-11.44
			c-0.01-1.09-1.49-2.15-2.3-3.23c-0.56,1.01-1.25,1.98-1.66,3.05c-0.8,2.1-1.43,4.27-2.13,6.41c-2.88,0.02-5.76,0.03-8.63,0.05
			c-0.23-0.26-0.46-0.52-0.7-0.78c-0.44-5.01-0.89-5.61-3.85-5.1c-1.22,1.16-2.79,2.13-3.6,3.53c-2.49,4.3-5.03,5.02-8.53,1.61
			c-2.52-2.44-4.45-3.25-6.66,0.2c-0.65,1.02-1.84,1.69-3.06,2.77c-0.97-1.33-1.72-2.36-2.48-3.39c-0.25-0.27-0.49-0.54-0.74-0.81
			c-1.4-1.04-2.8-2.08-4.2-3.11c-0.04,1.88-0.74,4.11,0.02,5.57c1.23,2.38,3.42,4.27,5.21,6.37c0.33,0.33,0.67,0.66,1,1
			c-3.35,0.71-6.7,1.42-10.05,2.13c-1.65-0.07-3.31-0.14-4.96-0.22c-2.52-2.44-10.98-2.75-15.24-0.56
			c-2.85,3.48-2.54,7.46-1.33,11.29c2.99,9.49,9.66,15.62,18.6,19.52c1.73,0.6,3.45,1.19,5.18,1.79c1.91-0.04,3.81-0.07,5.72-0.11
			c4.35,0.58,8.46,0.46,11.02-3.96L121.89,152.93z M137.35,164.9c-0.48-0.77-0.93-2.02-1.3-2c-2.96,0.19-6.19,0.04-8.72,1.26
			c-0.97,0.47-0.53,4.23-0.39,6.47c0.05,0.83,1.33,1.53,1.61,2.42c0.37,1.17,0.82,2.85,0.27,3.63c-0.55,0.77-2.33,1.05-3.51,0.92
			c-2.13-0.23-4.19-1.09-6.32-1.34c-0.93-0.11-1.97,0.65-2.96,1.01c0.49,0.91,0.77,2.16,1.53,2.65c1.07,0.69,2.52,0.76,3.77,1.19
			c5.62,1.96,12.15-1.94,17.49,2.68c0.31,0.27,2.79-1.97,4.27-3.05c-1.25-0.57-2.47-1.56-3.75-1.64c-4.51-0.3-7.04-4.21-5.12-8.41
			C135.1,168.76,136.24,166.93,137.35,164.9z"/>
		<path class="st4" d="M93.02,103.94c-0.72-1.31-1.44-2.63-2.16-3.94c-0.91-0.79-1.82-1.58-2.74-2.37c-0.33-0.23-0.66-0.46-1-0.69
			c-1.39-9.13-8.4-14.81-12.94-22.03c-0.38,1.85,0.26,3.59-0.2,4.96c-1.39,4.15,0.57,6.34,3.74,8.48c4.01,2.7,6.1,6.53,5.05,11.57
			c-0.28,0.3-0.56,0.6-0.84,0.9c-0.64,0.03-1.28,0.07-1.91,0.1c-0.64-5.23-4.48-8.35-7.77-11.85c-0.87-0.93-1.85-2.03-2.13-3.2
			c-1.1-4.51,1.55-9.97-3.49-13.55c-0.23-0.17,0.38-1.51,0.59-2.31c1.16-0.2,2.32-0.39,4.98-0.84c-2.3-1.23-3.21-1.71-4.13-2.2
			c-2.86-2.55-5.73-5.1-8.99-8.01c-2.97,5.44-2.56,10.39-0.34,14.62c6.36,12.1,13.32,23.89,19.93,35.87
			c0.59,1.07,0.3,2.63,0.42,3.96c-1.09-0.3-2.18-0.6-3.28-0.89c-0.13-0.26-0.34-0.42-0.64-0.48c-0.41-0.37-0.81-0.74-1.22-1.12
			l0.03,0.05c-3.05-5.2-6.09-10.4-9.14-15.6c-0.27-0.46-0.53-0.92-0.8-1.38c-1.41-2.81-2.82-5.62-4.24-8.43
			c-0.27-0.53-0.54-1.05-0.81-1.58c-0.25-0.1-0.31-0.27-0.18-0.51c-0.35-0.81-0.7-1.62-1.04-2.43c-0.28-0.64-0.57-1.29-0.85-1.93
			c-0.28-0.71-0.57-1.42-0.85-2.13c-0.25-0.2-0.31-0.45-0.19-0.75c-0.27-0.75-0.54-1.5-0.81-2.25c-0.58-2.69-1.16-5.39-1.74-8.08
			c-0.04-0.97-0.09-1.93-0.13-2.9c0.27-1.34,0.54-2.68,0.81-4.02c0.25-0.43,0.51-0.85,0.76-1.28c0,0-0.08,0.08-0.08,0.08
			c0.31-0.4,0.62-0.79,0.94-1.19c0,0,0.39,0.24,0.39,0.24s-0.4-0.23-0.4-0.23c0.46-0.24,0.91-0.48,1.37-0.72
			c0,0,0.37-0.08,0.38-0.08c1.07,0,2.14,0,3.21,0.01c0,0,0.38,0.05,0.38,0.05c0.74,0.31,1.48,0.61,2.22,0.92
			c0,0-0.09-0.06-0.09-0.06c0.63,0.41,1.26,0.83,1.88,1.24c0.36,0.26,0.72,0.52,1.08,0.78c0.4,0.35,0.79,0.7,1.19,1.04
			c0,0-0.09-0.1-0.09-0.1c0.38,0.35,0.75,0.7,1.13,1.04c0,0-0.11-0.09-0.11-0.09c0.42,0.39,0.83,0.78,1.25,1.17
			c0.23,0.22,0.47,0.44,0.7,0.66c0.38,0.44,0.76,0.89,1.13,1.33c0,0-0.11-0.12-0.11-0.12c0.38,0.39,0.77,0.77,1.15,1.16
			c1.93,2.59,3.87,5.18,5.8,7.77c0.31,0.44,0.63,0.88,0.94,1.32c2.97,4.69,5.95,9.37,8.92,14.06c0.28,0.55,0.56,1.1,0.84,1.64
			c0.35-0.42,0.7-0.83,1.06-1.25c-0.16-0.84-0.32-1.67-0.48-2.51c-0.01-0.62-0.02-1.25-0.02-1.87c0.16-1.03,0.32-2.07,0.48-3.1
			c0.34-0.77,0.68-1.53,1.01-2.3c0.28-0.26,0.56-0.52,0.84-0.78c1.07,0.05,2.14,0.09,3.22,0.14c0.78,0.53,1.57,1.05,2.57,1.72
			c0.56-1.28,1.1-2.52,1.64-3.77c0.23-0.52,0.46-1.04,0.69-1.56c1.62-2.84,3.24-5.69,4.86-8.53c0.37-0.4,0.74-0.8,1.11-1.2
			c0,0-0.11,0.12-0.11,0.12c0.39-0.41,0.78-0.83,1.17-1.24c0.23-0.24,0.47-0.47,0.7-0.71c0.47-0.33,0.94-0.65,1.4-0.98
			c2.03-0.36,4.07-0.72,6.1-1.09c0.71,0.34,1.43,0.69,2.14,1.03c0,0-0.08-0.05-0.08-0.05c0.4,0.32,0.81,0.63,1.21,0.95
			c0,0-0.07-0.06-0.07-0.06c0.34,0.39,0.67,0.77,1.01,1.16c0,0-0.09-0.09-0.09-0.09c0.32,0.41,0.63,0.82,0.95,1.22
			c0.62,1.36,1.24,2.73,1.86,4.09c0.26,0.51,0.52,1.02,0.77,1.53c0.43-0.5,0.85-1,1.28-1.5c0,0,0.02-0.06,0.02-0.06
			c0.27-0.47,0.53-0.95,0.8-1.42c0.33-0.55,0.66-1.09,0.99-1.64c0.33-0.48,0.67-0.97,1-1.45c3.35-3.51,6.7-7.03,10.04-10.54
			c2.05,0.01,4.09,0.02,6.14,0.03c1.67,2.31,3.34,4.61,5.01,6.92c0.29,0.69,0.58,1.39,0.88,2.08c0.09,0.46,0.17,0.93,0.26,1.39
			c0.38,1.23,0.77,2.46,1.15,3.68c0,0-0.04,0.21-0.04,0.21c0.18,0.57,0.36,1.14,0.54,1.71c0.67,0.2,1.66,0.78,1.97,0.53
			c1.25-1.01,2.3-2.28,3.42-3.45c0.93,0.65,1.86,1.29,2.8,1.94c0,0.43,0,0.86,0,1.29c-1.04,1.02-2.08,2.03-3.13,3.05
			c-0.46,0.68-0.91,1.36-1.37,2.05l0.14-0.21c0,0,0.17,0.19,0.16,0.18c-0.9,2-1.79,4-2.68,6.01c-0.74,0.04-1.49,0.07-2.23,0.1
			c-0.35-0.47-0.7-0.94-1.06-1.41c-0.19-0.69-0.38-1.37-0.58-2.06c0.37-0.19,0.73-0.38,1.1-0.57c-0.41-0.14-0.82-0.28-1.23-0.42
			c-0.1-0.65-0.19-1.3-0.29-1.95c-0.19-0.96-0.39-1.91-0.58-2.87c-0.14-0.71-0.29-1.42-0.43-2.14c-0.16-0.63-0.32-1.27-0.49-1.9
			c-0.83-2.37-1.65-4.75-2.48-7.12c-0.16-0.29-0.32-0.57-0.49-0.86c-3.81-4.11-7.9-2.76-11.62,3.82c-0.9,1.38-1.8,2.77-2.7,4.15
			c-1.31,2.49-2.48,5.07-4,7.43c-0.62,0.96-2.06,2.11-2.97,1.98c-0.96-0.13-2.03-1.54-2.52-2.62c-0.88-1.95-1.14-4.18-2.05-6.11
			c-2.34-4.93-4.98-5.34-8.6-1.36c-1.2,1.32-2.02,2.98-3.01,4.48c-1.72,5.32-3.43,10.64-5.15,15.96c-0.28,0.28-0.56,0.56-0.84,0.84
			c-2.01-1.21-4.02-2.42-6.47-3.9c0.76,5.94,1.54,12,2.32,18.06c-0.28,0.29-0.56,0.59-0.84,0.88
			C94.29,103.85,93.66,103.89,93.02,103.94z"/>
		<path class="st5" d="M159,69c-0.93-0.65-1.86-1.29-2.8-1.94c0.54-0.37,1.09-0.75,1.63-1.12c1.76,0.01,3.51,0.01,5.27,0.02
			c1.36,2.79,2.72,5.59,4.08,8.38c0.3,3.56,0.59,7.12,0.89,10.68c1.66-0.33,3.31-0.66,4.97-1c0.99-0.41,1.99-0.82,2.98-1.23
			c1.32,0.08,2.65,0.15,3.97,0.23c0.43,0.25,0.86,0.49,1.29,0.74c0,0-0.07-0.06-0.07-0.06c0.35,0.37,0.71,0.74,1.06,1.1
			c0,0-0.07-0.07-0.07-0.07c0.28,0.42,0.56,0.84,0.84,1.26c0.46,1.17,0.93,2.33,1.41,3.56c0.41-0.49,0.87-1.05,1.33-1.6
			c0.33-0.87,0.65-1.74,0.98-2.61c0,0,0.06-0.29,0.06-0.29c0.36-1.09,0.72-2.17,1.08-3.26c-0.11-0.31-0.05-0.58,0.2-0.79
			c0.22-0.54,0.44-1.09,0.66-1.63c0.12-0.46,0.23-0.91,0.35-1.37c0.23-0.52,0.46-1.04,0.68-1.56c3.37-5.49,6.74-10.97,10.11-16.46
			c0.66-0.39,1.33-0.78,1.99-1.17c0,0-0.08,0.05-0.08,0.05c0.72-0.23,1.44-0.47,2.16-0.7c0.68,0.01,1.36,0.03,2.04,0.04
			c0.66,0.27,1.32,0.54,1.98,0.81c4.69,2.61,4.83,7.14,4.74,11.64c-0.05,2.46-0.6,4.92-0.93,7.38c-0.12,0.08-0.33,0.17-0.33,0.24
			c0.02,0.24,0.11,0.47,0.18,0.71c-0.22,1.01-0.45,2.02-0.67,3.04c-0.23,0.9-0.47,1.81-0.7,2.71c-0.41,2.09-0.83,4.18-1.24,6.28
			c-0.25,0.91-0.51,1.82-0.76,2.73c-0.15,0.77-0.3,1.54-0.45,2.3c-0.2,0.54-0.41,1.08-0.61,1.62c-0.79,2.79-1.58,5.58-2.37,8.37
			c-0.22,0.53-0.43,1.06-0.65,1.59c-0.12,0.47-0.23,0.94-0.35,1.41c-0.22,0.53-0.44,1.06-0.66,1.59c0,0-0.13,0.38-0.13,0.38
			c-0.31,0.79-0.62,1.59-0.93,2.38c-1.63,3.23-3.27,6.46-4.9,9.7c-1.46,0.67-2.91,1.33-4.37,2c0.01-1.04,0.01-2.09,0.02-3.13
			c0.72-1.15,1.44-2.31,2.17-3.46c3.32-9.49,6.68-18.96,9.87-28.5c0.29-0.86-0.54-2.09-0.85-3.14c0.96-1.33,1.91-2.66,2.87-3.99
			c0.43-5.11,1.08-10.22,1.17-15.34c0.03-1.45-1.33-3.97-2.4-4.17c-1.54-0.29-4.29,0.6-4.97,1.84c-3.78,6.89-7.4,13.91-10.47,21.13
			c-2.06,4.84-2.19,10.68-4.88,15.03c-3.6,5.81-8.77,10.67-13.46,15.76c-0.57,0.61-2.35,0.1-3.56,0.12c0.3-1.07,0.24-2.56,0.94-3.13
			c5.14-4.24,7.13-10.32,9.72-16.06c0.05-0.35,0.09-0.7,0.14-1.05c0.18-0.29,0.26-0.61,0.23-0.95c0.24-0.99,0.48-1.99,0.73-2.98
			c0-0.69,0-1.38,0-2.07c-0.27-0.68-0.54-1.37-0.82-2.05l-0.36,0.1c-1.11-5.27-3.91-0.4-5.8-0.96c-0.67,0.79-1.34,1.59-2.01,2.38
			c-0.47,0.79-0.94,1.57-1.41,2.36c0,0,0.06-0.01,0.07-0.01c-0.68,0.74-1.37,1.47-2.06,2.21c-3.4,1.65-2.29-2.43-3.89-3.07
			c-0.32-4.55-0.65-9.11-0.97-13.66c0.04-1.42,0.07-2.84,0.11-4.25c-0.24-0.33-0.48-0.66-0.71-0.98c-0.06-0.44-0.12-0.89-0.19-1.33
			c-0.36-0.9-0.72-1.79-1.08-2.69c-0.34,0-0.68-0.01-1.02-0.01C159.67,69,159.33,69,159,69z"/>
		<path class="st6" d="M75.19,112.04c0.29,0.06,0.5,0.22,0.64,0.48c-0.07,4.8-3.63,4.44-6.83,4.61c-1.72,0.94-3.43,1.88-5.15,2.81
			c-0.66,0.53-1.32,1.05-1.98,1.58c-1.11,1.11-2.22,2.23-3.33,3.34c-0.61,1-1.23,1.99-1.84,2.99c0.4,1.84,0.79,3.68,1.19,5.51
			c0.66,0.56,1.33,1.12,1.99,1.68c1.13,1,2.35,1.92,3.37,3.02c1.45,1.57,2.76,3.27,4.13,4.92c-1.73,1.52-3.43,3.06-5.19,4.55
			c-5.56,4.7-5.86,8.94-0.81,14.26c1.69,1.78,3.68,3.27,5.53,4.89c1.09,0.73,2.17,1.46,3.26,2.19c0,0-0.04-0.05-0.04-0.05
			c-0.01,1.85-0.02,3.7-0.03,5.55c-0.62,0.23-1.24,0.47-1.86,0.7c-0.75,0.64-1.49,1.29-2.24,1.93c-0.08,0.14-0.16,0.28-0.24,0.42
			c0.08-0.14,0.16-0.28,0.24-0.42c0.59-0.01,1.17-0.01,1.76-0.02c1.56,1.98,2.73,4.74,4.77,5.79c6.05,3.11,12.54,5.36,18.65,8.35
			c1.85,0.91,3.06,3.13,4.57,4.75c-1.87-0.21-3.87-0.06-5.59-0.68c-5.3-1.9-10.54-3.99-15.71-6.22c-2.42-1.04-4.76-2.39-6.92-3.91
			c-6.36-4.45-6.68-7.97-1.44-13.59c-15.83-12.99-16.77-18.97-4.24-29.46c-2.03-1.4-4.1-2.61-5.91-4.12
			c-5.07-4.25-5.69-9.74-1.58-14.92c5.05-6.38,11.48-10.65,19.65-11.98c0,0-0.03-0.05-0.03-0.05
			C74.38,111.3,74.78,111.67,75.19,112.04z"/>
		<path class="st7" d="M172.82,197.07c1.86-5.37,7.1-5.4,11.27-7.02c4.7-1.83,9.7-3,14.16-5.26c4.73-2.4,5.24-6.83,1.92-11.22
			c-1.58-2.09-3.28-4.14-5.19-5.92c-3.37-3.15-2.15-4.79,1.44-6.49c5.26-2.5,5.96-4.86,2.77-9.95c-3.03-4.83-3.85-9.16,0.23-13.92
			c1.18-1.38,1.2-3.94,1.2-5.96c0-0.36-2.63-0.74-4.05-1.11c-0.51-0.06-1.03-0.12-1.54-0.17l-0.07-0.07c1.01-1.5,2.02-3,3.04-4.5
			c7.37,1.44,9.88,6.47,5.67,13.11c-2.63,4.14-2.82,6.78,0.32,10.76c4.62,5.88,2.94,11.1-4.18,15.84c1.83,2.27,3.88,4.4,5.44,6.84
			c4.12,6.43,2.67,13.47-4.06,17.06c-4.32,2.31-9.32,3.36-13.98,5.06c-3.67,1.34-7.24,2.96-10.96,4.12
			C175.3,198.55,173.97,197.5,172.82,197.07z"/>
		<path class="st8" d="M106.15,197.95c0.38-1.25,0.75-2.5,1.13-3.75c1.22,0.6,2.39,1.35,3.67,1.77c2.35,0.77,4.74,1.48,7.16,1.95
			c2.23,0.43,5-0.23,6.69,0.88c3.65,2.38,6.47,1.73,9.48-0.76c2.82-2.33,5.4-3.01,8.7-0.13c3.33,2.91,7.03,0.82,10.47-0.77
			c1.68-0.77,3.49-1.25,5.24-1.85c-0.64,1.89-1.29,3.77-1.93,5.66c-5.88,3.06-11.73,5-17.36-0.42c-5.67,3.71-11.4,5.62-17.74,1.73
			c-0.6-0.37-1.57-0.46-2.27-0.28C114.14,203.29,110,201.14,106.15,197.95z"/>
		<path class="st9" d="M195.03,130.04c0.51,0.06,1.03,0.12,1.54,0.17c-1.05,1.1-2.11,2.2-3.16,3.3c-0.18-1.6-0.41-3.2-0.52-4.8
			c-0.08-1.21-0.02-2.43-0.02-3.65c1.46-0.67,2.91-1.33,4.37-2c0.25,0.8,0.51,1.61,0.76,2.41c-1.01,1.5-2.02,3-3.04,4.5
			c-0.07,0.15-0.13,0.31-0.2,0.46C194.85,130.3,194.94,130.17,195.03,130.04z"/>
		<path class="st10" d="M168.08,85.01c-0.3-3.56-0.59-7.12-0.89-10.68C167.49,77.9,167.79,81.46,168.08,85.01z"/>
		<path class="st10" d="M143.02,53.99c-2.05-0.01-4.09-0.02-6.14-0.03C138.93,53.97,140.98,53.98,143.02,53.99z"/>
		<path class="st10" d="M163.11,65.96c-1.76-0.01-3.51-0.01-5.27-0.02C159.6,65.94,161.35,65.95,163.11,65.96z"/>
		<path class="st10" d="M89.88,88.44c-0.35,0.42-0.7,0.83-1.06,1.25c-0.28-0.55-0.56-1.1-0.84-1.64
			C88.62,88.17,89.25,88.31,89.88,88.44z"/>
		<path class="st10" d="M124.03,69.07c-0.43,0.5-0.85,1-1.28,1.5c-0.26-0.51-0.52-1.02-0.77-1.53
			C122.67,69.05,123.35,69.06,124.03,69.07z"/>
		<path class="st6" d="M53.22,63.03c0.04,0.97,0.09,1.93,0.13,2.9C53.3,64.96,53.26,64,53.22,63.03z"/>
		<path class="st10" d="M94.92,78.03c-1.07-0.05-2.14-0.09-3.22-0.14C92.78,77.93,93.85,77.98,94.92,78.03z"/>
		<path class="st10" d="M187.91,81.78c-0.36,1.09-0.72,2.17-1.08,3.26C187.19,83.95,187.55,82.87,187.91,81.78z"/>
		<path class="st10" d="M176.03,82.78c-0.99,0.41-1.99,0.82-2.98,1.23C174.04,83.61,175.04,83.19,176.03,82.78z"/>
		<path class="st10" d="M150.32,68.07c-0.38-1.23-0.77-2.45-1.15-3.68C149.55,65.61,149.94,66.84,150.32,68.07z"/>
		<path class="st10" d="M89.37,84.06c0.01,0.62,0.02,1.25,0.02,1.87C89.39,85.3,89.38,84.68,89.37,84.06z"/>
		<path class="st10" d="M63.2,56.82c-0.74-0.31-1.48-0.61-2.22-0.92C61.72,56.21,62.46,56.51,63.2,56.82z"/>
		<path class="st6" d="M57.8,81.07c0.35,0.81,0.7,1.62,1.04,2.43C58.49,82.69,58.14,81.88,57.8,81.07z"/>
		<path class="st10" d="M65,58c-0.63-0.41-1.25-0.83-1.88-1.24C63.74,57.17,64.37,57.59,65,58z"/>
		<path class="st10" d="M208.29,93.72c0.25-0.91,0.51-1.82,0.76-2.73C208.79,91.9,208.54,92.81,208.29,93.72z"/>
		<path class="st10" d="M203.99,58.15c-0.72,0.23-1.44,0.47-2.16,0.7C202.55,58.61,203.27,58.38,203.99,58.15z"/>
		<path class="st10" d="M208,59c-0.66-0.27-1.32-0.54-1.98-0.81C206.68,58.46,207.34,58.73,208,59z"/>
		<path class="st10" d="M210.29,84.71c0.23-0.9,0.47-1.81,0.7-2.71C210.76,82.91,210.52,83.81,210.29,84.71z"/>
		<path class="st10" d="M201.91,58.8c-0.66,0.39-1.33,0.78-1.99,1.17C200.58,59.58,201.25,59.19,201.91,58.8z"/>
		<path class="st10" d="M202.14,113.37c0.31-0.79,0.62-1.59,0.93-2.38C202.76,111.78,202.45,112.57,202.14,113.37z"/>
		<path class="st10" d="M186.77,85.33c-0.33,0.87-0.65,1.74-0.98,2.61C186.12,87.07,186.44,86.2,186.77,85.33z"/>
		<path class="st10" d="M117.2,61.83c-0.71-0.34-1.43-0.69-2.14-1.03C115.77,61.14,116.49,61.48,117.2,61.83z"/>
		<path class="st10" d="M148.91,62.99c-0.29-0.69-0.58-1.39-0.88-2.08C148.33,61.6,148.62,62.3,148.91,62.99z"/>
		<path class="st10" d="M90.87,78.66c-0.34,0.77-0.68,1.53-1.01,2.3C90.19,80.19,90.53,79.43,90.87,78.66z"/>
		<path class="st6" d="M55.09,74.01c0.27,0.75,0.54,1.5,0.81,2.25C55.63,75.51,55.36,74.76,55.09,74.01z"/>
		<path class="st6" d="M56.09,77.01c0.28,0.71,0.57,1.42,0.85,2.13C56.66,78.43,56.38,77.72,56.09,77.01z"/>
		<path class="st10" d="M60.6,55.85c-1.07,0-2.14,0-3.21-0.01C58.46,55.84,59.53,55.84,60.6,55.85z"/>
		<path class="st10" d="M207.23,97.64c0.2-0.54,0.41-1.08,0.61-1.62C207.63,96.56,207.43,97.1,207.23,97.64z"/>
		<path class="st10" d="M189.81,76.43c-0.23,0.52-0.46,1.04-0.68,1.56C189.35,77.47,189.58,76.95,189.81,76.43z"/>
		<path class="st10" d="M68.31,60.77c-0.38-0.35-0.75-0.7-1.13-1.04C67.55,60.08,67.93,60.42,68.31,60.77z"/>
		<path class="st6" d="M57.01,55.92c-0.46,0.24-0.91,0.48-1.37,0.72C56.09,56.4,56.55,56.16,57.01,55.92z"/>
		<path class="st6" d="M55.64,56.62c-0.31,0.4-0.62,0.79-0.94,1.19C55.02,57.42,55.33,57.02,55.64,56.62z"/>
		<path class="st10" d="M204.2,107.61c0.22-0.53,0.43-1.06,0.65-1.59C204.64,106.55,204.42,107.08,204.2,107.61z"/>
		<path class="st6" d="M54.78,57.73c-0.25,0.43-0.51,0.85-0.76,1.28C54.28,58.58,54.53,58.15,54.78,57.73z"/>
		<path class="st10" d="M203.2,110.6c0.22-0.53,0.44-1.06,0.66-1.59C203.64,109.54,203.42,110.07,203.2,110.6z"/>
		<path class="st10" d="M67.27,59.82c-0.4-0.35-0.79-0.7-1.19-1.04C66.47,59.13,66.87,59.48,67.27,59.82z"/>
		<path class="st10" d="M99.82,74.42c-0.23,0.52-0.46,1.04-0.69,1.56C99.36,75.46,99.59,74.94,99.82,74.42z"/>
		<path class="st10" d="M69.44,61.85c-0.42-0.39-0.83-0.78-1.25-1.17C68.61,61.07,69.03,61.46,69.44,61.85z"/>
		<path class="st10" d="M108.96,61.88c-0.47,0.33-0.93,0.65-1.4,0.98C108.02,62.53,108.49,62.21,108.96,61.88z"/>
		<path class="st10" d="M118.33,62.72c-0.4-0.32-0.81-0.63-1.21-0.95C117.53,62.09,117.93,62.4,118.33,62.72z"/>
		<path class="st10" d="M71.28,63.84c-0.38-0.44-0.75-0.89-1.13-1.33C70.52,62.95,70.9,63.4,71.28,63.84z"/>
		<path class="st10" d="M79.06,73.98c-0.31-0.44-0.63-0.88-0.94-1.32C78.43,73.1,78.75,73.54,79.06,73.98z"/>
		<path class="st10" d="M119.27,63.82c-0.34-0.39-0.67-0.77-1.01-1.16C118.6,63.05,118.94,63.43,119.27,63.82z"/>
		<path class="st10" d="M72.31,64.88c-0.38-0.39-0.77-0.77-1.15-1.16C71.55,64.11,71.93,64.5,72.31,64.88z"/>
		<path class="st6" d="M59.02,84c0.27,0.53,0.54,1.05,0.81,1.58C59.56,85.05,59.29,84.53,59.02,84z"/>
		<path class="st10" d="M150.82,69.98c-0.18-0.57-0.36-1.14-0.54-1.71C150.46,68.84,150.64,69.41,150.82,69.98z"/>
		<path class="st10" d="M182.28,84.8c-0.35-0.37-0.71-0.74-1.06-1.1C181.57,84.06,181.93,84.43,182.28,84.8z"/>
		<path class="st10" d="M183.05,85.98c-0.28-0.42-0.56-0.84-0.84-1.26C182.49,85.15,182.77,85.56,183.05,85.98z"/>
		<path class="st10" d="M188.78,79.36c-0.22,0.54-0.44,1.09-0.66,1.63C188.34,80.44,188.56,79.9,188.78,79.36z"/>
		<path class="st10" d="M181.29,83.75c-0.43-0.25-0.86-0.49-1.29-0.74C180.43,83.26,180.86,83.51,181.29,83.75z"/>
		<path class="st6" d="M64.07,94.01c0.27,0.46,0.53,0.92,0.8,1.38C64.6,94.92,64.34,94.47,64.07,94.01z"/>
		<path class="st10" d="M211.66,78.96c-0.06-0.24-0.16-0.47-0.18-0.71c0-0.07,0.21-0.16,0.33-0.24
			C211.76,78.33,211.71,78.65,211.66,78.96z"/>
		<path class="st10" d="M126.84,64.5c-0.33,0.48-0.67,0.97-1,1.45C126.18,65.47,126.51,64.98,126.84,64.5z"/>
		<path class="st10" d="M105.79,64.69c-0.37,0.4-0.74,0.8-1.11,1.2C105.05,65.49,105.42,65.09,105.79,64.69z"/>
		<path class="st10" d="M120.13,64.95c-0.32-0.41-0.63-0.82-0.95-1.22C119.5,64.14,119.81,64.55,120.13,64.95z"/>
		<path class="st10" d="M106.85,63.57c-0.39,0.41-0.78,0.83-1.17,1.24C106.07,64.4,106.46,63.98,106.85,63.57z"/>
		<path class="st10" d="M124.85,67.59c-0.27,0.47-0.53,0.95-0.8,1.42C124.32,68.54,124.59,68.07,124.85,67.59z"/>
		<path class="st11" d="M116.99,125.92c2.26,0.16,4.52,0.31,6.79,0.47c4.07,0.17,8.14,0.33,12.21,0.5c1.65,0.07,3.31,0.15,4.97,0.22
			c4.34,0.25,8.69,0.51,13.03,0.76c2.93,0.17,5.86,0.35,8.79,0.52c4.4,0.17,8.81,0.34,13.21,0.52c0.16,0.04,0.32,0.1,0.49,0.11
			c10.01,0.9,10.01,0.9,6.42,10.32c-6.86,18.04-30.59,22.16-43.58,7.64c-2.16-2.42-4.7-4.5-6.97-6.65
			c-2.49,3.5-4.96,6.96-7.43,10.43c-1.01,0.72-2.02,1.45-3.04,2.17c0,0,0.05-0.05,0.05-0.05c-3.67,1.32-7.34,2.64-11.02,3.96
			c-1.91,0.04-3.81,0.07-5.72,0.11c-1.73-0.6-3.45-1.19-5.18-1.79c-8.94-3.9-15.61-10.04-18.6-19.52
			c-1.21-3.83-1.52-7.81,1.34-11.29c5.08,0.19,10.16,0.37,15.23,0.56c1.65,0.07,3.31,0.14,4.96,0.22
			C107.63,125.38,112.31,125.65,116.99,125.92z"/>
		<path class="st12" d="M149.21,115.08c0.7-2.14,1.34-4.3,2.13-6.41c0.41-1.07,1.1-2.04,1.66-3.05c0.8,1.08,2.28,2.14,2.3,3.23
			c0.06,4.67-1.25,8.98-5.64,11.44c-4.34,2.42-8.32,1-11.97-1.83c-0.64-0.49-1.2-1.09-2-1.83c-3.96,4.74-8.56,5.53-13.75,2.57
			c-0.79,0.23-1.57,0.46-2.36,0.69c-0.54,0.4-1.07,0.79-1.61,1.19c-0.39,0.28-0.78,0.55-1.17,0.83c0,0,0.04-0.13,0.04-0.13
			c-0.61,0.1-1.22,0.19-1.82,0.29c-0.67-0.03-1.34-0.07-2.01-0.1c-0.34,0.01-0.68,0.02-1.02,0.02c-1.79-2.1-3.98-3.99-5.21-6.37
			c-0.76-1.47-0.06-3.69-0.02-5.57c1.4,1.04,2.8,2.08,4.2,3.11c0.25,0.27,0.49,0.54,0.74,0.81c0.75,1.03,1.51,2.06,2.48,3.39
			c1.22-1.08,2.41-1.75,3.06-2.77c2.21-3.45,4.14-2.65,6.66-0.2c3.51,3.4,6.04,2.69,8.53-1.61c0.81-1.4,2.38-2.36,3.6-3.53
			c1.28,1.7,2.57,3.4,3.85,5.1c0.23,0.26,0.46,0.52,0.7,0.78C143.47,117.49,146.36,118.52,149.21,115.08z"/>
		<path class="st13" d="M137.35,164.9c-1.11,2.03-2.25,3.86-3.13,5.81c-1.92,4.2,0.62,8.12,5.12,8.41c1.28,0.08,2.5,1.07,3.75,1.64
			c-1.47,1.07-3.96,3.32-4.27,3.05c-5.34-4.62-11.87-0.72-17.49-2.68c-1.25-0.44-2.7-0.5-3.77-1.19c-0.76-0.49-1.04-1.74-1.53-2.65
			c0.99-0.36,2.02-1.12,2.96-1.01c2.13,0.25,4.19,1.11,6.32,1.34c1.18,0.13,2.95-0.15,3.51-0.92c0.55-0.77,0.09-2.45-0.27-3.63
			c-0.28-0.9-1.56-1.59-1.61-2.42c-0.14-2.24-0.58-6,0.39-6.47c2.54-1.22,5.76-1.08,8.72-1.26
			C136.42,162.88,136.87,164.13,137.35,164.9z"/>
		<path class="st9" d="M195.05,118.46c-0.72,1.15-1.45,2.31-2.17,3.46c-4.76,1.45-6.38-0.87-5.68-5.15
			c0.97-5.99,2.24-11.93,3.54-17.85c0.14-0.65,1.49-1.59,2.05-1.46c0.75,0.17,1.83,1.3,1.8,1.98c-0.1,2.1-0.66,4.17-1.04,6.25
			c-0.62,3.38-1.48,6.74-1.69,10.14C191.81,116.64,193.93,117.58,195.05,118.46z"/>
		<path class="st14" d="M82.78,99.92c1.05-5.05-1.04-8.87-5.05-11.57c-3.17-2.14-5.13-4.33-3.74-8.48c0.46-1.37-0.18-3.11,0.2-4.96
			c4.54,7.22,11.55,12.9,12.94,22.03C85.68,97.94,84.23,98.93,82.78,99.92z"/>
		<path class="st15" d="M206.93,82.84c-0.96,1.33-1.91,2.66-2.87,3.99c-2.07,1.58-4.03,3.36-6.26,4.68
			c-1.21,0.71-2.88,0.64-4.34,0.92c0.41-1.26,0.58-2.67,1.26-3.75c2.01-3.17,4.16-6.25,6.39-9.26c0.59-0.8,1.67-1.25,2.52-1.86
			c0.58,1.03,1.12,2.08,1.74,3.08C205.86,81.39,206.41,82.1,206.93,82.84z"/>
		<path class="st16" d="M95.77,102.92c-0.78-6.06-1.56-12.12-2.32-18.06c2.44,1.47,4.45,2.69,6.46,3.9
			c-0.34,0.67-0.6,1.87-1.04,1.94c-3.48,0.58-2.32,2.63-2.34,5C96.51,98.01,100.43,101.11,95.77,102.92z"/>
		<path class="st16" d="M100.76,87.92c1.72-5.32,3.43-10.64,5.15-15.96C104.84,77.49,105.24,83.49,100.76,87.92z"/>
		<path class="st17" d="M115.03,122.07c0.61-0.1,1.22-0.19,1.82-0.29c0.05,1.38,0.09,2.76,0.14,4.14
			c-4.68-0.27-9.36-0.54-14.04-0.81c3.35-0.71,6.7-1.42,10.05-2.13c0,0,0.09-0.07,0.09-0.07
			C113.73,122.63,114.38,122.35,115.03,122.07z"/>
		<path class="st17" d="M97.99,124.89c-5.08-0.19-10.15-0.38-15.23-0.56C87.01,122.14,95.46,122.45,97.99,124.89z"/>
		<path class="st18" d="M67.38,142.98c-1.37-1.65-2.68-3.35-4.13-4.92c-1.02-1.1-2.24-2.02-3.37-3.02c2.39,0.87,5,1.41,7.12,2.72
			C68.96,138.98,70.39,141.02,67.38,142.98z"/>
		<path class="st19" d="M162.88,78.27c0.32,4.55,0.65,9.11,0.97,13.66c-0.24,0.04-0.48,0.08-0.72,0.13
			C163.05,87.46,162.97,82.86,162.88,78.27z"/>
		<path class="st17" d="M175.99,128.91c-4.4-0.17-8.81-0.34-13.21-0.52C166.89,126.14,173.43,126.4,175.99,128.91z"/>
		<path class="st17" d="M135.98,126.88c-4.07-0.17-8.14-0.33-12.21-0.5C127.93,124.53,132.05,123.53,135.98,126.88z"/>
		<path class="st17" d="M153.98,127.87c-4.34-0.25-8.69-0.51-13.03-0.76C145.39,125.76,149.83,124.38,153.98,127.87z"/>
		<path class="st5" d="M163.14,92.06c0.24-0.05,0.48-0.09,0.72-0.13c1.6,0.64,0.49,4.71,3.89,3.07c0.04,0.34,0.07,0.68,0.11,1.02
			c-1.17,0.6-2.35,1.2-3.52,1.8C163.94,95.9,163.54,93.98,163.14,92.06z"/>
		<path class="st20" d="M110.92,156.83c3.67-1.32,7.34-2.64,11.02-3.96C119.37,157.29,115.27,157.41,110.92,156.83z"/>
		<path class="st21" d="M149.21,115.08c-2.86,3.44-5.74,2.41-8.63,0.05C143.46,115.11,146.34,115.09,149.21,115.08z"/>
		<path class="st22" d="M173.15,88.06c1.89,0.56,4.69-4.31,5.8,0.96c-1.99,0.32-3.98,0.64-5.97,0.96c0,0-0.32-0.32-0.32-0.32
			C172.82,89.13,172.99,88.59,173.15,88.06z"/>
		<path class="st21" d="M139.88,114.35c-1.28-1.7-2.57-3.4-3.85-5.1C138.99,108.74,139.44,109.34,139.88,114.35z"/>
		<path class="st5" d="M152.12,81.35c0.89-2,1.78-4.01,2.68-6.01C153.92,77.35,153.02,79.35,152.12,81.35z"/>
		<path class="st18" d="M63.84,119.94c1.72-0.94,3.43-1.88,5.15-2.81C67.28,118.07,65.56,119.01,63.84,119.94z"/>
		<path class="st10" d="M68.09,66.97c0.91,0.49,1.83,0.98,4.13,2.2c-2.66,0.45-3.82,0.64-4.98,0.84C67.52,69,67.8,67.99,68.09,66.97
			z"/>
		<path class="st18" d="M57.88,133.37c-0.4-1.84-0.79-3.68-1.19-5.51C57.09,129.69,57.48,131.53,57.88,133.37z"/>
		<path class="st23" d="M70.1,174.37c0.01-1.85,0.02-3.7,0.03-5.55C72.97,170.69,72.85,172.54,70.1,174.37z"/>
		<path class="st20" d="M100.01,155.15c1.73,0.6,3.45,1.19,5.18,1.79C103.47,156.34,101.74,155.74,100.01,155.15z"/>
		<path class="st18" d="M58.53,124.86c1.11-1.11,2.22-2.23,3.33-3.34C60.75,122.63,59.64,123.75,58.53,124.86z"/>
		<path class="st24" d="M129.06,68.15c0.9-1.38,1.8-2.77,2.7-4.15C130.85,65.38,129.95,66.77,129.06,68.15z"/>
		<path class="st22" d="M169.74,92.8c0.47-0.79,0.94-1.57,1.41-2.36c0.51-0.26,1.01-0.52,1.52-0.77c0,0,0.32,0.32,0.32,0.32
			C171.9,90.92,170.82,91.86,169.74,92.8z"/>
		<path class="st25" d="M180.13,93.03c-0.24,0.99-0.48,1.99-0.73,2.98c-0.07-0.97-0.15-1.94-0.22-2.91
			C179.49,93.04,179.81,93.02,180.13,93.03z"/>
		<path class="st14" d="M88.12,97.63c0.91,0.79,1.82,1.58,2.74,2.37C89.95,99.21,89.04,98.42,88.12,97.63z"/>
		<path class="st22" d="M167.86,96.01c-0.04-0.34-0.07-0.68-0.11-1.02c0.69-0.74,1.37-1.47,2.06-2.21
			C169.15,93.86,168.51,94.94,167.86,96.01z"/>
		<path class="st20" d="M121.89,152.93c1.01-0.72,2.02-1.45,3.04-2.17C123.91,151.48,122.9,152.2,121.89,152.93z"/>
		<path class="st23" d="M70.17,168.87c-1.09-0.73-2.17-1.46-3.26-2.19C68,167.41,69.08,168.14,70.17,168.87z"/>
		<path class="st25" d="M179.31,88.92c0.27,0.68,0.54,1.37,0.82,2.05c-0.32,0.01-0.63-0.01-0.94-0.07
			C179.22,90.24,179.27,89.58,179.31,88.92z"/>
		<path class="st14" d="M80.02,100.93c0.64-0.03,1.28-0.07,1.91-0.1c-0.38,0.57-0.76,1.14-1.14,1.71
			C80.54,102,80.28,101.46,80.02,100.93z"/>
		<path class="st22" d="M179.18,90.9c0.31,0.06,0.63,0.08,0.94,0.07c0,0.69,0,1.38,0,2.07c-0.32-0.01-0.63,0.01-0.95,0.07
			C179.18,92.37,179.18,91.63,179.18,90.9z"/>
		<path class="st16" d="M93.02,103.94c0.64-0.05,1.27-0.09,1.91-0.14c-0.37,0.58-0.74,1.16-1.11,1.74
			C93.55,105,93.29,104.47,93.02,103.94z"/>
		<path class="st10" d="M161.02,69.01c0.36,0.9,0.72,1.79,1.08,2.69c-0.82-0.38-1.63-0.76-2.45-1.15c0.12-0.22,0.25-0.44,0.4-0.64
			C160.37,69.61,160.69,69.31,161.02,69.01z"/>
		<path class="st23" d="M66,177c0.75-0.64,1.49-1.29,2.24-1.93c-0.16,0.63-0.33,1.27-0.49,1.9C67.17,176.98,66.58,176.99,66,177
			L66,177z"/>
		<path class="st5" d="M147.26,72.19c0.19,0.96,0.39,1.91,0.58,2.87C147.65,74.1,147.45,73.15,147.26,72.19z"/>
		<path class="st17" d="M119.58,119.89c0.79-0.23,1.57-0.46,2.36-0.69C121.15,119.43,120.37,119.66,119.58,119.89z"/>
		<path class="st5" d="M148.13,77c0.41,0.14,0.82,0.28,1.23,0.42c-0.37,0.19-0.73,0.38-1.1,0.57
			C148.21,77.66,148.17,77.33,148.13,77z"/>
		<path class="st5" d="M154.5,75.38c0.45-0.68,0.91-1.37,1.37-2.05C155.42,74.02,154.96,74.7,154.5,75.38z"/>
		<path class="st5" d="M146.34,68.16c0.16,0.63,0.32,1.27,0.49,1.9C146.66,69.42,146.5,68.79,146.34,68.16z"/>
		<path class="st22" d="M179.17,96.96c-0.05,0.35-0.09,0.7-0.14,1.05C179.08,97.66,179.12,97.31,179.17,96.96z"/>
		<path class="st26" d="M111.71,113.97c-0.25-0.27-0.49-0.54-0.74-0.81C111.21,113.43,111.46,113.7,111.71,113.97z"/>
		<path class="st17" d="M116.81,121.91c0.39-0.28,0.78-0.55,1.17-0.83C117.59,121.36,117.2,121.63,116.81,121.91z"/>
		<path class="st10" d="M162.28,73.03c0.24,0.33,0.48,0.66,0.71,0.98C162.76,73.69,162.52,73.36,162.28,73.03z"/>
		<path class="st17" d="M112,121.99c0.34-0.01,0.68-0.02,1.02-0.02c-0.01,0.32,0.01,0.64,0.07,0.95c0,0-0.09,0.07-0.09,0.07
			C112.67,122.65,112.33,122.32,112,121.99z"/>
		<path class="st24" d="M159,69c0.33,0,0.67,0,1,0c0.01,0.3,0.02,0.61,0.04,0.91c-0.14,0.21-0.27,0.42-0.4,0.64
			c-0.27,0.02-0.48-0.07-0.65-0.27C159,69.86,159,69.43,159,69z"/>
		<path class="st5" d="M148.83,80.05c0.35,0.47,0.7,0.94,1.06,1.41C149.53,80.99,149.18,80.52,148.83,80.05z"/>
		<path class="st5" d="M143.37,60.18c0.16,0.29,0.32,0.57,0.49,0.86C143.7,60.75,143.54,60.46,143.37,60.18z"/>
		<path class="st2" d="M75.19,112.04c-0.41-0.37-0.81-0.74-1.22-1.12C74.38,111.3,74.78,111.67,75.19,112.04z"/>
		<path class="st5" d="M172.66,89.66c-0.51,0.26-1.01,0.52-1.52,0.77c0.67-0.79,1.34-1.59,2.01-2.38
			C172.99,88.59,172.82,89.13,172.66,89.66z"/>
		<path class="st5" d="M160.04,69.91C160.02,69.61,160,69.3,160,69c0.34,0,0.68,0.01,1.02,0.01
			C160.69,69.31,160.37,69.61,160.04,69.91z"/>
		<path class="st23" d="M66,177c-0.08,0.14-0.16,0.28-0.24,0.42C65.84,177.28,65.92,177.14,66,177C66,177,66,177,66,177z"/>
		<path class="st7" d="M195.03,130.04c-0.09,0.13-0.18,0.26-0.26,0.4c0.07-0.15,0.13-0.31,0.2-0.46
			C194.96,129.97,195.03,130.04,195.03,130.04z"/>
		<path class="st26" d="M113.09,122.91c-0.06-0.31-0.08-0.63-0.07-0.95c0.67,0.03,1.34,0.07,2.01,0.1
			C114.38,122.35,113.73,122.63,113.09,122.91z"/>
	</g>
</g>
<g>
	<g>
		<path class="st3" d="M86.88,121.5c2.18,0.42,4.39,0.65,6.61,0.64c0.64-0.01,1.31-0.28,1.77-0.73c0.43-0.43,0.76-1.15,0.73-1.77
			c-0.03-0.65-0.24-1.32-0.73-1.77c-0.17-0.13-0.34-0.26-0.51-0.39c-0.39-0.23-0.81-0.34-1.26-0.34c-0.19-0.02-0.38-0.05-0.57-0.07
			c0.22,0.03,0.44,0.06,0.66,0.09c-1.81-0.25-3.6-0.62-5.36-1.1c-0.22,1.64-0.44,3.27-0.66,4.91c1.36-0.13,2.72-0.15,4.07-0.05
			c0.61,0.05,1.35-0.31,1.77-0.73c0.43-0.43,0.76-1.15,0.73-1.77c-0.03-0.65-0.24-1.32-0.73-1.77c-0.51-0.47-1.08-0.68-1.77-0.73
			c-1.36-0.1-2.72-0.08-4.07,0.05c-0.65,0.06-1.31,0.23-1.77,0.73c-0.38,0.41-0.61,0.88-0.69,1.44c-0.16,1.22,0.58,2.41,1.79,2.74
			c2.16,0.6,4.36,0.99,6.59,1.26c0-1.67,0-3.33,0-5c-1.42,0.01-2.84-0.08-4.24-0.26c0.22,0.03,0.44,0.06,0.66,0.09
			c-0.57-0.08-1.14-0.17-1.7-0.28c-0.67-0.13-1.32-0.1-1.93,0.25c-0.52,0.3-1.01,0.9-1.15,1.49c-0.15,0.64-0.11,1.36,0.25,1.93
			C85.72,120.88,86.24,121.38,86.88,121.5L86.88,121.5z"/>
	</g>
</g>
<g>
	<g>
		<path class="st3" d="M92.62,119.17c-0.18,0.04-0.37,0.09-0.55,0.12c0.29-0.05-0.26,0.02-0.31,0.02c-0.42,0.02-0.85,0.02-1.27-0.01
			c-0.86-0.05-1.72-0.17-2.57-0.27c-1.83-0.23-3.64-0.3-5.44,0.19c-1.19,0.33-1.97,1.53-1.79,2.74c0.2,1.31,1.18,2.03,2.46,2.17
			c5.59,0.61,11.22,1.14,16.83,0.4c1.34-0.18,2.5-1.02,2.5-2.5c0-1.21-1.15-2.68-2.5-2.5c-5.6,0.74-11.24,0.21-16.83-0.4
			c0.22,1.64,0.44,3.27,0.66,4.91c0.18-0.05,0.36-0.1,0.55-0.14c0.79-0.19-0.15-0.01,0.3-0.05c0.42-0.03,0.84-0.04,1.26-0.02
			c0.86,0.04,1.71,0.15,2.57,0.26c1.85,0.23,3.63,0.33,5.46-0.11c1.31-0.32,2.1-1.8,1.75-3.08
			C95.33,119.57,93.94,118.85,92.62,119.17L92.62,119.17z"/>
	</g>
</g>
<g>
	<g>
		<path class="st3" d="M95.3,123.69c1.35,0.06,2.7,0.02,4.04-0.1c1.3-0.12,2.56-1.06,2.5-2.5c-0.06-1.35-1.1-2.51-2.5-2.5
			c-1.98,0.01-3.96,0.02-5.94-0.01c-1.84-0.03-3.66,0.02-5.28-0.46c-0.22,1.64-0.44,3.27-0.66,4.91c1.84,0.05,3.68,0.09,5.53,0.14
			c0-1.67,0-3.33,0-5c-3.45,0.23-6.91,0.31-10.36,0.24c-1.31-0.02-2.56,1.17-2.5,2.5c0.06,1.38,1.1,2.47,2.5,2.5
			c3.46,0.06,6.91-0.02,10.36-0.24c1.3-0.09,2.56-1.09,2.5-2.5c-0.06-1.38-1.1-2.47-2.5-2.5c-1.84-0.05-3.68-0.09-5.53-0.14
			c-2.86-0.07-3.34,4.12-0.66,4.91c2.03,0.6,4.19,0.59,6.28,0.63c2.09,0.04,4.18,0.03,6.27,0.02c0-1.67,0-3.33,0-5
			c-1.35,0.12-2.69,0.16-4.04,0.1c-1.31-0.05-2.56,1.19-2.5,2.5C92.86,122.59,93.9,123.63,95.3,123.69L95.3,123.69z"/>
	</g>
</g>
<g>
	<g>
		<path class="st3" d="M126.28,126.4c1.49,0,2.97-0.01,4.46-0.01c0.71,0,1.42,0,2.12,0c0.37,0,0.74,0,1.11,0.02
			c0.07,0,0.13,0.01,0.2,0.02c0.19,0.02,0.13,0.01-0.17-0.02c0.15-0.04,0.45,0.11,0.58,0.15c0.22-1.64,0.44-3.27,0.66-4.91
			c-3.62,0.22-7.24,0.2-10.85-0.06c-1.31-0.09-2.56,1.22-2.5,2.5c0.06,1.44,1.1,2.4,2.5,2.5c3.61,0.26,7.24,0.28,10.85,0.06
			c1.25-0.08,2.28-0.89,2.46-2.17c0.17-1.24-0.59-2.38-1.79-2.74c-1.59-0.49-3.33-0.34-4.97-0.34c-1.56,0-3.12,0.01-4.67,0.01
			c-1.31,0-2.56,1.15-2.5,2.5C123.84,125.25,124.88,126.4,126.28,126.4L126.28,126.4z"/>
	</g>
</g>
<g>
	<g>
		<path class="st3" d="M151.46,122.7c-2.99-0.34-6.01-0.42-9.02-0.25c-1.3,0.07-2.56,1.1-2.5,2.5c0.06,1.29,1.1,2.58,2.5,2.5
			c3.01-0.17,6.02-0.09,9.02,0.25c0.59,0.07,1.36-0.33,1.77-0.73c0.43-0.43,0.76-1.15,0.73-1.77c-0.03-0.65-0.24-1.32-0.73-1.77
			C152.71,122.96,152.16,122.78,151.46,122.7L151.46,122.7z"/>
	</g>
</g>
<g>
	<g>
		<path class="st3" d="M173.01,123.45c-2.92,0.17-5.84,0.22-8.77,0.13c0,1.67,0,3.33,0,5c1.96-0.22,3.92-0.48,5.89-0.63
			c0.88-0.07,1.76-0.08,2.64,0c0.62,0.05-0.53-0.13,0.07,0.02c0.24,0.06,0.48,0.1,0.71,0.17c0.16,0.05,0.39,0.08,0.52,0.18
			c-0.31-0.14-0.35-0.15-0.09-0.03c0.11,0.06,0.22,0.11,0.33,0.18c0.42-1.55,0.84-3.11,1.26-4.66c-1.3,0.15-2.61,0.2-3.92,0.14
			c-1.31-0.06-2.56,1.2-2.5,2.5c0.06,1.41,1.1,2.43,2.5,2.5c1.31,0.06,2.62,0.02,3.92-0.14c1.07-0.13,2.15-0.68,2.41-1.84
			c0.24-1.07-0.16-2.27-1.15-2.82c-1.93-1.08-4.13-1.35-6.31-1.22c-2.09,0.13-4.18,0.43-6.27,0.66c-0.68,0.08-1.26,0.23-1.77,0.73
			c-0.43,0.43-0.76,1.15-0.73,1.77c0.06,1.39,1.1,2.46,2.5,2.5c2.92,0.09,5.85,0.04,8.77-0.13c1.3-0.08,2.56-1.09,2.5-2.5
			C175.45,124.66,174.4,123.37,173.01,123.45L173.01,123.45z"/>
	</g>
</g>
<g>
	<g>
		<path class="st3" d="M112.81,123.06c-3.2-0.14-6.41-0.13-9.61,0.05c-0.61,0.03-1.39,0.4-1.55,1.03c-0.15,0.57,0.34,1.07,0.93,1.08
			c2.93,0.06,5.86,0.1,8.8,0.11c2.27,0,5.64,0.47,6.92-1.94c0.25-0.47-0.08-1-0.55-1.15c-1-0.31-2-0.23-2.99,0.1
			c-0.44,0.14-1.41,0.74-1.88,0.45c-0.54,0.63-1.08,1.26-1.62,1.89c1.79,0.18,3.57,0.46,5.33,0.87c0.32-0.68,0.64-1.36,0.96-2.04
			c-2.46,0.13-4.91,0.13-7.37-0.01c-0.69-0.04-1.57,0.2-1.89,0.89c-0.29,0.63,0.26,1.19,0.88,1.22c2.7,0.16,5.41,0.18,8.12,0.03
			c0.56-0.03,1.26-0.35,1.51-0.9c0.21-0.45-0.04-1.03-0.55-1.15c-1.98-0.47-3.97-0.82-6-1.03c-0.6-0.06-1.31,0.15-1.71,0.63
			c-0.32,0.38-0.37,0.97,0.1,1.27c0.94,0.59,2,0.63,3.07,0.39c0.51-0.11,0.99-0.32,1.48-0.49c0.26-0.09,0.6-0.25,0.88-0.17
			c-0.18-0.38-0.37-0.76-0.55-1.15c-0.03,0.06-0.06,0.07-0.22,0.1c-0.42,0.07-0.86,0.05-1.28,0.05c-1.17,0-2.34,0-3.51,0
			c-2.31-0.01-4.62-0.04-6.93-0.09c-0.21,0.71-0.42,1.41-0.63,2.12c2.95-0.17,5.91-0.2,8.86-0.07c0.7,0.03,1.57-0.19,1.89-0.89
			C113.98,123.66,113.44,123.09,112.81,123.06L112.81,123.06z"/>
	</g>
</g>
<g>
	<g>
		<path class="st3" d="M175.06,92.34c-0.2,1.9-0.76,3.69-1.67,5.37c0.95,0.02,1.91,0.05,2.86,0.07c0-1.91,0.14-3.82,0.44-5.71
			c0.11-0.72,0.16-1.34,0.54-1.92c-0.06,0.1-0.05,0.09,0.04-0.03c0.1-0.11,0.11-0.12,0-0.01c0.13-0.1,0.13-0.1-0.01,0
			c0.07-0.03,0.14-0.07,0.22-0.1c0.28-0.15,0.55-0.32,0.76-0.56c0.09-0.11,0.17-0.23,0.24-0.36c0.06-0.12,0.06-0.11-0.02,0.03
			c-0.31,0.19-0.63,0.38-0.94,0.57c0.04-0.01,0.08-0.02,0.11-0.03c-0.37-0.01-0.74-0.02-1.1-0.02c-0.11-0.04-0.34-0.2-0.11,0.03
			c0.05,0.14,0.07,0.18,0.04,0.14c0.03-0.07,0.06-0.14,0.09-0.2c0.01,0.01-0.7,0.69-0.74,0.73c-0.25,0.24-0.5,0.49-0.75,0.73
			c-0.13,0.12-0.25,0.24-0.38,0.37c-0.15,0.15-0.3,0.2-0.02,0.07c0.26-0.07,0.51-0.14,0.77-0.21c-0.04,0-0.07,0.01-0.11,0.01
			c0.24,0.03,0.47,0.06,0.71,0.09c0.17,0.04,0.08,0.09,0.02,0.01c-0.1-0.13-0.21-0.25-0.29-0.4c-0.08-0.16-0.17-0.42-0.18-0.6
			c-0.04-0.7-0.67-1.05-1.35-0.98c-0.58,0.06-1.58,0.45-1.59,1.19c-0.02,1.27-0.17,2.53-0.46,3.76c-0.16,0.71,0.82,1.03,1.35,0.98
			c0.71-0.07,1.42-0.45,1.59-1.19c0.29-1.24,0.44-2.49,0.46-3.76c-0.98,0.07-1.96,0.14-2.94,0.21c0.04,0.76,0.24,1.49,0.76,2.08
			c0.74,0.83,1.83,1.01,2.81,0.41c0.71-0.44,1.31-1.18,1.91-1.76c0.58-0.56,1.33-1.12,1.27-2.02c-0.07-0.99-0.89-1.82-1.91-1.75
			c-0.58,0.04-1.49,0.37-1.69,1c-0.04,0.12-0.24,0.26,0.17-0.11c0.38-0.35,0.24-0.19,0.11-0.15c-0.23,0.08-0.45,0.23-0.64,0.37
			c-1.19,0.88-1.48,2.31-1.69,3.69c-0.29,1.86-0.42,3.74-0.43,5.62c0,0.65,0.56,0.96,1.16,0.97c0.68,0.02,1.37-0.29,1.7-0.9
			c1-1.83,1.62-3.86,1.84-5.93C178.16,90.62,175.2,91,175.06,92.34L175.06,92.34z"/>
	</g>
</g>
<g>
	<g>
		<path class="st11" d="M112.65,122.34c0.64,0,1.53-0.14,2.05-0.55c0.38-0.3,0.47-0.59-0.16-0.59c-0.64,0-1.53,0.14-2.05,0.55
			C112.11,122.04,112.02,122.34,112.65,122.34L112.65,122.34z"/>
	</g>
</g>
</svg>
